<svg id="SvgjsSvg1100" width="5000" height="3485" xmlns="http://www.w3.org/2000/svg" version="1.1" xmlns:xlink="http://www.w3.org/1999/xlink" xmlns:svgjs="http://svgjs.com/svgjs" viewBox="0 0 213.71875 149"><defs id="SvgjsDefs1101"></defs><g id="SvgjsG1103" transform="rotate(0 106.859375 39.046875)"><svg width="80" viewBox="0 0 81.63923645019531 79.69999694824219" xmlns="http://www.w3.org/2000/svg" version="1.1" xmlns:xlink="http://www.w3.org/1999/xlink" xmlns:svgjs="http://svgjs.com/svgjs" preserveAspectRatio="none" height="78.09375" x="66.859375" y="0" fill="#000000" stroke="none"><g><svg xmlns="http://www.w3.org/2000/svg" xmlns:xlink="http://www.w3.org/1999/xlink" version="1.1" x="0px" y="0px" viewBox="4.060769557952881 5.6999993324279785 81.63923645019531 79.69999694824219" enable-background="new 0 0 90 90" xml:space="preserve" width="81.63923645019531" height="79.69999694824219"><g><g><path d="M53.8,85.4H36.1c-0.2,0-0.3,0-0.4-0.1l-16-7.7c-0.4-0.2-0.6-0.7-0.5-1.1c0.1-0.5,0.5-0.8,1-0.8h29.8l19.8-24.8    c0.2-0.3,0.6-0.4,1-0.4c0.4,0.1,0.7,0.4,0.8,0.8l2.1,9.4c0.1,0.3,0,0.6-0.2,0.8L54.6,85C54.4,85.3,54.1,85.4,53.8,85.4z     M36.3,83.4h17l18.2-22.8L70,53.7L51.1,77.3c-0.2,0.2-0.5,0.4-0.8,0.4H24.5L36.3,83.4z"></path></g><g><path d="M53.8,85.4c-0.3,0-0.6-0.1-0.8-0.4c-0.3-0.4-0.3-0.9,0-1.2l18.5-23.2l-7.1-31c-0.1-0.4,0.1-0.8,0.4-1    c0.3-0.2,0.7-0.3,1.1-0.1l8.8,4.2c0.3,0.1,0.5,0.4,0.5,0.7l6.7,29.2c0.1,0.3,0,0.6-0.2,0.8L70.6,77.3c-0.1,0.1-0.2,0.2-0.3,0.3    l-16,7.7C54.1,85.4,54,85.4,53.8,85.4z M66.9,31.2l6.7,29.4c0.1,0.3,0,0.6-0.2,0.8L57.3,81.6l11.8-5.7l10.6-13.3l-6.5-28.3    L66.9,31.2z"></path></g><g><path d="M80.9,63.8c-0.5,0-0.9-0.3-1-0.8l-6.6-28.8L44.6,20.5c-0.3-0.2-0.6-0.5-0.6-0.9s0.2-0.7,0.6-0.9l8.9-4.3    c0.3-0.1,0.6-0.1,0.9,0l26.9,13c0.3,0.1,0.5,0.4,0.5,0.7l3.9,17.3c0,0.1,0,0.3,0,0.4l-3.9,17.3C81.7,63.5,81.3,63.8,80.9,63.8z     M47.3,19.6l27.3,13.2c0.3,0.1,0.5,0.4,0.5,0.7l5.7,25l2.9-12.8L80,28.9L53.9,16.4L47.3,19.6z"></path></g><g><path d="M19.5,52.5c-0.3,0-0.6-0.1-0.8-0.4l-6.2-7.7c-0.2-0.2-0.3-0.5-0.2-0.8l6.7-29.4c0.1-0.3,0.3-0.5,0.5-0.7l16-7.7    c0.1-0.1,0.3-0.1,0.4-0.1h17.7c0.5,0,0.9,0.3,1,0.8c0.1,0.5-0.1,0.9-0.5,1.1L27.7,20.4l-7.2,31.4c-0.1,0.4-0.4,0.7-0.8,0.8    C19.7,52.5,19.6,52.5,19.5,52.5z M14.4,43.5l4.6,5.7l6.8-29.8c0.1-0.3,0.3-0.5,0.5-0.7L49.4,7.7H36.3l-15.4,7.4L14.4,43.5z"></path></g><g><path d="M24.6,30.4c-0.2,0-0.4-0.1-0.6-0.2c-0.3-0.2-0.4-0.6-0.4-1l2.2-9.7c0.1-0.3,0.3-0.5,0.5-0.7l27-13c0.3-0.1,0.6-0.1,0.9,0    l16,7.7c0.1,0.1,0.3,0.2,0.3,0.3l11.1,13.9c0.3,0.4,0.3,0.9,0,1.2c-0.3,0.4-0.8,0.5-1.2,0.3L53.9,16.4L25,30.3    C24.9,30.4,24.7,30.4,24.6,30.4z M27.7,20.4L26,27.6l27.5-13.2c0.3-0.1,0.6-0.1,0.9,0l23,11.1l-8.2-10.3L53.8,7.8L27.7,20.4z"></path></g><g><path d="M50.4,77.7H20.1c-0.3,0-0.6-0.1-0.8-0.4L8.2,63.5c-0.1-0.1-0.2-0.3-0.2-0.4L4.1,45.8c-0.1-0.5,0.1-0.9,0.5-1.1    c0.4-0.2,0.9-0.1,1.2,0.3l18.6,23.3h31.9c0.4,0,0.7,0.2,0.9,0.6c0.2,0.3,0.1,0.8-0.1,1.1l-6,7.5C50.9,77.6,50.7,77.7,50.4,77.7z     M20.6,75.7h29.3l4.4-5.5H23.9c-0.3,0-0.6-0.1-0.8-0.4L7,49.6l2.9,12.8L20.6,75.7z"></path></g><g><path d="M33.7,70.2h-9.7c-0.3,0-0.6-0.1-0.8-0.4L4.3,46.2c-0.2-0.2-0.3-0.5-0.2-0.8L8,28c0-0.1,0.1-0.3,0.2-0.4l11.1-13.9    c0.3-0.4,0.8-0.5,1.2-0.3c0.4,0.2,0.6,0.7,0.5,1.1l-6.6,28.9l20,25.1c0.2,0.3,0.3,0.7,0.1,1.1C34.4,70,34,70.2,33.7,70.2z     M24.4,68.2h7.2l-19-23.8c-0.2-0.2-0.3-0.5-0.2-0.8l5.7-25.1L9.9,28.7L6.1,45.3L24.4,68.2z"></path></g></g></svg></g><defs id="SvgjsDefs1102"></defs></svg></g><g id="SvgjsG1105" transform="rotate(0 106.859375 130.546875)"><svg xmlns="http://www.w3.org/2000/svg" xmlns:xlink="http://www.w3.org/1999/xlink" width="213.71875" viewBox="2.7200000286102295 10.399999618530273 213.72000122070312 30.920000076293945" overflow="visible" style="overflow: visible;" transform="" version="1.1" xmlns:svgjs="http://svgjs.com/svgjs" preserveAspectRatio="none" height="30.90625" x="0" y="115.09375" fill="#000000" stroke="none"><path stroke="none" fill="#000000" d="M4.44 40.72L4.44 40.72Q3.80 40.72 3.80 39.68L3.80 39.68L3.80 36.72L3.68 34.28L3.68 34.28Q3.32 27.72 3.32 24.64L3.32 24.64L3.32 24.64Q3.32 22.96 2.88 14.16L2.88 14.16L2.88 14.16Q2.80 12.24 2.76 11.70L2.76 11.70L2.76 11.70Q2.72 11.16 2.72 11.12L2.72 11.12L2.72 10.84L2.72 10.84Q2.72 10.56 3.12 10.48L3.12 10.48L3.12 10.48Q3.36 10.40 4.52 10.40L4.52 10.40L5.40 10.40L6.52 10.40L6.52 10.40Q6.84 10.40 7 10.66L7 10.66L7 10.66Q7.16 10.92 7.16 11.32L7.16 11.32L7.16 11.32Q7.16 11.72 6.44 11.72L6.44 11.72L5.52 11.68L4.48 11.68L4.48 11.68Q4.16 11.68 4.08 11.80L4.08 11.80L4.08 11.80Q4 11.92 4 12.44L4 12.44L4 12.44Q4 13.24 4.28 18.28L4.28 18.28L4.28 18.28Q4.56 23.32 4.56 24.16L4.56 24.16L4.56 24.16Q5.04 24.16 5.92 23.92L5.92 23.92L5.92 23.92Q6.84 23.68 7.28 23.68L7.28 23.68L7.28 23.68Q7.52 23.68 7.70 23.96L7.70 23.96L7.70 23.96Q7.88 24.24 7.88 24.48L7.88 24.48L7.88 24.48Q7.88 24.92 7.24 25.06L7.24 25.06L7.24 25.06Q6.60 25.20 5.40 25.28L5.40 25.28L5.40 25.28Q4.56 25.40 4.56 25.76L4.56 25.76L4.56 25.76Q4.56 27.56 4.96 32.48L4.96 32.48L4.96 32.48Q5.32 36.96 5.32 39.24L5.32 39.24L5.20 39.44L5.20 39.44Q5.32 39.72 5.32 39.96L5.32 39.96L5.32 39.96Q5.32 40.72 4.44 40.72L4.44 40.72ZM21 41L21 41Q20.40 41 20.24 40.86L20.24 40.86L20.24 40.86Q20.08 40.72 20 40.12L20 40.12L20 40.12Q19.64 37.20 19.56 36.48L19.56 36.48L19.36 34.88L19.36 34.88Q18.48 34.68 17.36 34.68L17.36 34.68L15.92 34.60L15.92 34.60Q14.96 34.48 14.52 34.48L14.52 34.48L14.52 34.48Q14.28 34.48 14.24 34.68L14.24 34.68L14.24 34.68Q14.24 34.80 14.20 34.80L14.20 34.80L14.12 35.60L14.12 35.60Q14.08 36.32 13.68 38.48L13.68 38.48L13.68 38.48Q13.48 39.56 13.20 40.16L13.20 40.16L13.20 40.16Q12.88 40.84 12.60 40.84L12.60 40.84L12.60 40.84Q12.36 40.84 12.08 40.62L12.08 40.62L12.08 40.62Q11.80 40.40 11.80 40.16L11.80 40.16L11.84 40.04L11.88 39.92L11.88 39.92Q12.60 37.08 13.08 34.28L13.08 34.28L13.56 31.80L14.04 28.76L14.04 28.76Q14.04 28.76 14.48 26.12L14.48 26.12L14.48 26.12Q14.68 25.04 15.20 22.64L15.20 22.64L15.20 22.64Q15.76 19.92 15.88 18.92L15.88 18.92L15.88 18.92Q15.92 18.80 16.04 17.44L16.04 17.44L16.04 17.44Q16.20 15.92 16.32 15.20L16.32 15.20L16.32 15.20Q16.44 14.16 16.56 14L16.56 14L16.84 14L16.84 14Q16.96 14.04 17.12 14.04L17.12 14.04L17.12 14.04Q17.60 14.04 17.84 13.80L17.84 13.80L17.84 13.80Q18.12 13.80 18.34 13.98L18.34 13.98L18.34 13.98Q18.56 14.16 18.56 14.40L18.56 14.40L18.56 14.40Q18.56 16.32 18.84 18.80L18.84 18.80L18.84 18.80Q19 20.08 19.08 20.92L19.08 20.92L19.08 20.92Q19.52 26.08 21.32 40.28L21.32 40.28L21.32 40.40L21.32 40.40Q21.32 40.80 21 41L21 41ZM18.76 33.80L19.16 33.80L19.16 33.80Q18.76 28.04 17.64 16.80L17.64 16.80L15.48 27.48L15.48 27.48Q14.56 32.08 14.56 33.28L14.56 33.28L14.56 33.28Q14.56 33.48 16.08 33.64L16.08 33.64L16.08 33.64Q17.60 33.80 18.76 33.80L18.76 33.80ZM27.80 40.64L27.80 40.64Q26.88 40.64 26.72 40.24L26.72 40.24L26.72 40.24Q26.52 40.24 26.40 40.28L26.40 40.28L26.08 40.28L26.08 40.28Q25.20 40.28 24.96 39.88L24.96 39.88L24.96 39.88Q24.96 39.60 25.28 39.40L25.28 39.40L25.48 39.20L26.64 39.20L26.80 39.04L26.88 38.68L26.92 38.20L26.92 38.20Q26.92 35.76 26.80 33.84L26.80 33.84L26.72 32.36L26.64 29.44L26.64 29.44Q26.64 27.88 26.76 24.76L26.76 24.76L26.84 20.12L26.84 20.12Q26.84 17.08 26.64 15.48L26.64 15.48L26.64 15.48Q26.28 15.36 25.44 15.36L25.44 15.36L25 15.40L25 15.40Q24.76 15.44 24.48 15.44L24.48 15.44L24.48 15.44Q23.72 15.44 23.72 14.76L23.72 14.76L23.72 14.76Q23.72 14.60 24.08 14.44L24.08 14.44L24.08 14.44Q24.44 14.28 24.68 14.28L24.68 14.28L24.68 14.28Q26.20 14.28 27.72 14.44L27.72 14.44L27.72 14.44Q28.64 14.48 29.56 14.80L29.56 14.80L29.56 14.80Q30.28 15.04 30.28 15.48L30.28 15.48L30.28 15.48Q30.28 15.56 30.16 15.80L30.16 15.80L29.24 15.88L29.24 15.88Q28.96 15.64 28.08 15.64L28.08 15.64L27.88 15.76L27.88 15.76Q28 16.12 28 17.88L28 17.88L28 17.88Q28 20.52 27.96 22.64L27.96 22.64L27.88 27.40L27.88 27.40Q27.88 29.20 28.04 31.76L28.04 31.76L28.04 31.76Q28.16 34.68 28.16 36.16L28.16 36.16L28.16 36.68L28.16 36.68Q28.12 36.96 28.12 37.40L28.12 37.40L28.12 37.40Q28.12 38.32 28.24 38.52L28.24 38.52L28.20 38.60L28.20 38.60Q28.20 39 29.08 39L29.08 39L29.08 39Q29.44 39 29.68 38.96L29.68 38.96L30.28 38.96L30.28 38.96Q31.44 38.96 31.44 39.52L31.44 39.52L31.44 39.52Q31.44 39.88 31.20 40.10L31.20 40.10L31.20 40.10Q30.96 40.32 30.56 40.32L30.56 40.32L30.56 40.32Q30.20 40.32 29.92 40.24L29.92 40.24L29.92 40.24Q29.60 40.20 29.24 40.20L29.24 40.20L29.24 40.20Q29 40.20 28.52 40.40L28.52 40.40L28.52 40.40Q28.04 40.64 27.80 40.64L27.80 40.64ZM38.20 40.40L37.76 40.08L37.72 38.60L37.72 38.60Q37.68 37.96 37.68 37.16L37.68 37.16L37.68 37.16Q37.68 36.76 37.72 36.48L37.72 36.48L37.76 35.76L37.76 35.76Q37.76 35.36 37.60 34.80L37.60 34.80L37.60 34.80Q37.60 32.12 37.20 24.84L37.20 24.84L37.20 24.84Q36.80 17.80 36.76 15.28L36.76 15.28L36.76 15.28Q34.28 15.28 33.44 15.16L33.44 15.16L33.44 15.16Q32.64 14.96 32.64 14.52L32.64 14.52L32.64 14.52Q32.84 14.08 33.40 14.08L33.40 14.08L33.40 14.08Q34.60 14.08 36.88 14.24L36.88 14.24L36.88 14.24Q38.96 14.44 40.36 14.44L40.36 14.44L41.20 14.44L42.04 14.40L42.04 14.40Q42.76 14.40 42.76 14.92L42.76 14.92L42.76 14.92Q42.76 15.16 42.50 15.30L42.50 15.30L42.50 15.30Q42.24 15.44 41.88 15.44L41.88 15.44L41.88 15.44Q41.08 15.44 40.20 15.36L40.20 15.36L38.48 15.28L38.48 15.28Q38.32 15.28 38.32 15.40L38.32 15.40L38.32 15.40Q38.28 15.52 38.28 16.16L38.28 16.16L38.28 16.16Q38.28 20.04 38.76 27.92L38.76 27.92L38.76 27.92Q39.20 36.08 39.20 39.64L39.20 39.64L39.20 39.64Q39.20 39.92 38.86 40.16L38.86 40.16L38.86 40.16Q38.52 40.40 38.20 40.40L38.20 40.40ZM54.20 41.08L54.20 41.08Q54.20 40.68 53 40.68L53 40.68L53 40.68Q52.80 33.28 52.80 29.96L52.80 29.96L52.68 29.80L52.84 29.44L52.84 29.44Q52.84 28.72 52.68 27.96L52.68 27.96L52.08 27.80L52.08 27.80Q51.72 27.92 51.28 27.92L51.28 27.92L51.28 27.92Q50.96 27.92 49.96 27.72L49.96 27.72L49.96 27.72Q49.28 27.52 48.72 27.52L48.72 27.52L48.28 27.68L48.28 27.68Q48.28 29.08 48.24 30.20L48.24 30.20L48.24 30.20Q48.20 31.32 48.20 32.72L48.20 32.72L48.28 32.88L48.28 32.88Q48.28 34 48.40 36.24L48.40 36.24L48.40 36.24Q48.52 38.44 48.52 39.56L48.52 39.56L48.52 39.56Q48.52 40 48.36 40.30L48.36 40.30L48.36 40.30Q48.20 40.60 47.88 40.60L47.88 40.60L47.88 40.60Q47 40.60 47 38.20L47 38.20L47 38.20Q47 36.16 47.04 34.52L47.04 34.52L47.08 30.88L47.08 30.88Q47.08 27.24 46.96 26.96L46.96 26.96L46.96 26.96Q47.16 26.56 47.16 24.32L47.16 24.32L47.16 24.32Q47.16 22.40 47 19.64L47 19.64L46.92 18.08L46.84 14.96L46.84 14.96Q46.84 14.68 47.04 14.44L47.04 14.44L47.04 14.44Q47.24 14.20 47.52 14.20L47.52 14.20L47.52 14.20Q48.32 14.20 48.32 16.52L48.32 16.52L48.32 16.52Q48.32 19.24 48.28 21.44L48.28 21.44L48.28 21.44Q48.20 23.64 48.20 26.28L48.20 26.28L48.20 26.28Q48.20 26.76 51.24 26.76L51.24 26.76L51.40 26.76L51.40 26.76Q52.16 26.76 52.50 26.46L52.50 26.46L52.50 26.46Q52.84 26.16 52.84 25.44L52.84 25.44L52.84 25.44Q52.84 23.32 52.56 19.92L52.56 19.92L52.56 19.92Q52.32 16.24 52.32 14.40L52.32 14.40L52.32 14.40Q52.32 14.16 52.52 13.98L52.52 13.98L52.52 13.98Q52.72 13.80 53 13.80L53 13.80L53.36 13.92L53.36 13.92Q53.64 13.96 53.72 14.04L53.72 14.04L53.72 14.04Q53.72 17.16 53.96 23.36L53.96 23.36L53.96 23.36Q54.20 29.60 54.20 32.72L54.20 32.72L54.20 32.72Q54.20 37.44 54.48 40.64L54.48 40.64L54.20 41.08ZM51.68 26.28L51.68 26.20L51.76 26.28L51.68 26.28ZM68.48 40.72L68.48 40.72Q67.84 40.72 67.84 39.68L67.84 39.68L67.84 36.72L67.72 34.28L67.72 34.28Q67.36 27.72 67.36 24.64L67.36 24.64L67.36 24.64Q67.36 22.96 66.92 14.16L66.92 14.16L66.92 14.16Q66.84 12.24 66.80 11.70L66.80 11.70L66.80 11.70Q66.76 11.16 66.76 11.12L66.76 11.12L66.76 10.84L66.76 10.84Q66.76 10.56 67.16 10.48L67.16 10.48L67.16 10.48Q67.40 10.40 68.56 10.40L68.56 10.40L69.44 10.40L70.56 10.40L70.56 10.40Q70.88 10.40 71.04 10.66L71.04 10.66L71.04 10.66Q71.20 10.92 71.20 11.32L71.20 11.32L71.20 11.32Q71.20 11.72 70.48 11.72L70.48 11.72L69.56 11.68L68.52 11.68L68.52 11.68Q68.20 11.68 68.12 11.80L68.12 11.80L68.12 11.80Q68.04 11.92 68.04 12.44L68.04 12.44L68.04 12.44Q68.04 13.24 68.32 18.28L68.32 18.28L68.32 18.28Q68.60 23.32 68.60 24.16L68.60 24.16L68.60 24.16Q69.08 24.16 69.96 23.92L69.96 23.92L69.96 23.92Q70.88 23.68 71.32 23.68L71.32 23.68L71.32 23.68Q71.56 23.68 71.74 23.96L71.74 23.96L71.74 23.96Q71.92 24.24 71.92 24.48L71.92 24.48L71.92 24.48Q71.92 24.92 71.28 25.06L71.28 25.06L71.28 25.06Q70.64 25.20 69.44 25.28L69.44 25.28L69.44 25.28Q68.60 25.40 68.60 25.76L68.60 25.76L68.60 25.76Q68.60 27.56 69.00 32.48L69.00 32.48L69.00 32.48Q69.36 36.96 69.36 39.24L69.36 39.24L69.24 39.44L69.24 39.44Q69.36 39.72 69.36 39.96L69.36 39.96L69.36 39.96Q69.36 40.72 68.48 40.72L68.48 40.72ZM83.84 41.32L83.28 41.12L83.28 41.12Q82.80 40.60 82.24 38.36L82.24 38.36L82.24 38.36Q81.68 36.12 81.20 33.32L81.20 33.32L81.20 33.32Q80.88 31.04 80.28 28.80L80.28 28.80L80.28 28.80Q79.80 26.80 79.36 26.80L79.36 26.80L79.24 26.80L79.24 26.80Q78.36 26.80 78.36 27.36L78.36 27.36L78.36 27.36Q78.36 30.24 78.68 36.12L78.68 36.12L78.68 36.12Q78.84 39.72 79.04 40.32L79.04 40.32L78.72 41L78.16 41L77.84 40.68L77.84 40.68Q77.20 22.20 77.20 15.48L77.20 15.48L77.20 15.48Q77.20 15.04 77.26 14.76L77.26 14.76L77.26 14.76Q77.32 14.48 77.52 14.24L77.52 14.24L77.52 14.24Q77.68 13.96 78.08 13.96L78.08 13.96L78.08 13.96Q80.12 13.96 81.36 14.96L81.36 14.96L81.36 14.96Q82.60 15.96 82.60 17.84L82.60 17.84L82.60 20.76L82.60 20.76Q82.60 21.52 82.10 22.80L82.10 22.80L82.10 22.80Q81.60 24.08 81.00 25.16L81.00 25.16L80.48 26.16L80.48 26.16Q80.92 28.20 82.22 33.50L82.22 33.50L82.22 33.50Q83.52 38.80 83.64 39.12L83.64 39.12L83.64 39.12Q83.68 39.16 83.74 39.32L83.74 39.32L83.74 39.32Q83.80 39.48 84.00 39.80L84.00 39.80L84.00 39.80Q84.28 40.36 84.28 40.76L84.28 40.76L84.28 40.76Q84.28 41.32 83.84 41.32L83.84 41.32ZM78.56 25.80L78.56 25.80Q79.32 25.80 79.92 25.04L79.92 25.04L79.92 25.04Q80.52 24.28 80.88 23.08L80.88 23.08L80.88 23.08Q81.52 20.64 81.52 19.20L81.52 19.20L81.52 19.20Q81.52 18.28 81.42 17.68L81.42 17.68L81.42 17.68Q81.32 17.08 81.08 16.40L81.08 16.40L81.08 16.40Q80.60 15 78.80 15L78.80 15L78.80 15Q78.60 15 78.48 15.34L78.48 15.34L78.48 15.34Q78.36 15.68 78.36 16.04L78.36 16.04L78.36 16.04Q78.36 18.72 78.44 20.88L78.44 20.88L78.44 20.88Q78.48 23.04 78.48 25.72L78.48 25.72L78.56 25.80ZM90.92 40.64L90.92 40.64Q90.00 40.64 89.84 40.24L89.84 40.24L89.84 40.24Q89.64 40.24 89.52 40.28L89.52 40.28L89.20 40.28L89.20 40.28Q88.32 40.28 88.08 39.88L88.08 39.88L88.08 39.88Q88.08 39.60 88.40 39.40L88.40 39.40L88.60 39.20L89.76 39.20L89.92 39.04L90.00 38.68L90.04 38.20L90.04 38.20Q90.04 35.76 89.92 33.84L89.92 33.84L89.84 32.36L89.76 29.44L89.76 29.44Q89.76 27.88 89.88 24.76L89.88 24.76L89.96 20.12L89.96 20.12Q89.96 17.08 89.76 15.48L89.76 15.48L89.76 15.48Q89.40 15.36 88.56 15.36L88.56 15.36L88.12 15.40L88.12 15.40Q87.88 15.44 87.60 15.44L87.60 15.44L87.60 15.44Q86.84 15.44 86.84 14.76L86.84 14.76L86.84 14.76Q86.84 14.60 87.20 14.44L87.20 14.44L87.20 14.44Q87.56 14.28 87.80 14.28L87.80 14.28L87.80 14.28Q89.32 14.28 90.84 14.44L90.84 14.44L90.84 14.44Q91.76 14.48 92.68 14.80L92.68 14.80L92.68 14.80Q93.40 15.04 93.40 15.48L93.40 15.48L93.40 15.48Q93.40 15.56 93.28 15.80L93.28 15.80L92.36 15.88L92.36 15.88Q92.08 15.64 91.20 15.64L91.20 15.64L91.00 15.76L91.00 15.76Q91.12 16.12 91.12 17.88L91.12 17.88L91.12 17.88Q91.12 20.52 91.08 22.64L91.08 22.64L91.00 27.40L91.00 27.40Q91.00 29.20 91.16 31.76L91.16 31.76L91.16 31.76Q91.28 34.68 91.28 36.16L91.28 36.16L91.28 36.68L91.28 36.68Q91.24 36.96 91.24 37.40L91.24 37.40L91.24 37.40Q91.24 38.32 91.36 38.52L91.36 38.52L91.32 38.60L91.32 38.60Q91.32 39 92.20 39L92.20 39L92.20 39Q92.56 39 92.80 38.96L92.80 38.96L93.40 38.96L93.40 38.96Q94.56 38.96 94.56 39.52L94.56 39.52L94.56 39.52Q94.56 39.88 94.32 40.10L94.32 40.10L94.32 40.10Q94.08 40.32 93.68 40.32L93.68 40.32L93.68 40.32Q93.32 40.32 93.04 40.24L93.04 40.24L93.04 40.24Q92.72 40.20 92.36 40.20L92.36 40.20L92.36 40.20Q92.12 40.20 91.64 40.40L91.64 40.40L91.64 40.40Q91.16 40.64 90.92 40.64L90.92 40.64ZM99.00 41.16L99.00 41.16Q98.28 41.16 98.20 40.32L98.20 40.32L98.20 39.80L98.20 39.80Q98.24 39.60 98.24 39.32L98.24 39.32L98.08 39.16L98.08 39.16Q98.40 38.32 98.40 37.52L98.40 37.52L98.40 37.52Q98.40 36.60 98.28 34.88L98.28 34.88L98.20 32.24L98.20 32.24Q98.20 30.24 98.32 26.24L98.32 26.24L98.32 26.24Q98.48 22.68 98.48 20.20L98.48 20.20L98.40 17.80L98.40 17.80Q98.32 16.72 98.32 15.40L98.32 15.40L98.32 15.40Q98.32 14.80 98.60 14.54L98.60 14.54L98.60 14.54Q98.88 14.28 99.48 14.28L99.48 14.28L99.48 14.28Q99.88 14.28 100.12 14.52L100.12 14.52L100.12 14.52Q100.20 14.56 101.28 14.68L101.28 14.68L101.28 14.68Q102.28 14.80 103.00 15.04L103.00 15.04L103.00 15.04Q103.76 15.28 103.76 15.64L103.76 15.64L103.76 15.64Q103.76 16.04 103.00 16.44L103.00 16.44L103.00 16.44Q100.72 15.68 99.76 15.68L99.76 15.68L99.56 15.92L99.56 15.92Q99.60 16.28 99.60 17.64L99.60 17.64L99.60 17.64Q99.60 19.36 99.52 20.72L99.52 20.72L99.52 20.72Q99.48 22.12 99.48 23.84L99.48 23.84L99.48 23.84Q99.48 24.96 100.04 24.96L100.04 24.96L100.68 24.92L100.68 24.92Q101.00 24.88 101.36 24.88L101.36 24.88L101.36 24.88Q102.92 24.88 102.92 25.60L102.92 25.60L102.92 25.60Q102.92 26.04 102.72 26.34L102.72 26.34L102.72 26.34Q102.52 26.64 102.12 26.64L102.12 26.64L102.12 26.64Q101.52 26.64 101.20 26.32L101.20 26.32L99.92 26.12L99.72 26.12L99.52 26.32L99.52 26.44L99.52 26.44Q99.60 27.12 99.60 29.60L99.60 29.60L99.60 29.60Q99.60 31.16 99.56 32.44L99.56 32.44L99.52 35.28L99.52 35.28Q99.52 36.84 99.64 38.48L99.64 38.48L99.64 38.48Q99.68 39.40 100.04 39.70L100.04 39.70L100.04 39.70Q100.40 40 101.36 40L101.36 40L102.08 39.96L102.08 39.96Q102.44 39.92 102.88 39.92L102.88 39.92L102.88 39.92Q104.04 39.92 104.04 40.44L104.04 40.44L104.04 40.44Q104.04 41.16 102.28 41.16L102.28 41.16L99.00 41.16ZM118.68 40.80L118.68 40.80Q118.36 40.80 118.22 40.56L118.22 40.56L118.22 40.56Q118.08 40.32 117.96 39.84L117.96 39.84L117.96 39.84Q117.92 39.52 117.80 39.28L117.80 39.28L117.84 39.16L117.84 39.16Q117.52 37.28 116.48 34.56L116.48 34.56L115.76 32.48L115.76 32.48Q115.68 32.40 115.00 30.44L115.00 30.44L114.68 29.48L114.68 29.48Q111.08 18.36 110.16 17.44L110.16 17.44L110.16 17.44Q109.84 18.52 109.84 20.24L109.84 20.24L109.84 20.24Q109.84 21.16 109.88 21.84L109.88 21.84L109.92 23.40L109.88 24.36L109.88 24.36Q109.84 24.80 109.84 25.32L109.84 25.32L109.84 25.32Q109.84 26.20 109.92 26.84L109.92 26.84L109.92 26.84Q110.00 28.12 110.00 28.12L110.00 28.12L109.88 28.12L109.88 28.12Q109.88 34.80 110.16 35.48L110.16 35.48L110.16 39.08L110.16 39.08Q110.32 39.40 110.32 39.92L110.32 39.92L110.32 39.92Q110.32 40.24 110.10 40.48L110.10 40.48L110.10 40.48Q109.88 40.72 109.56 40.72L109.56 40.72L109.56 40.72Q108.72 40.72 108.72 38.56L108.72 38.56L108.80 37.28L108.80 37.28Q108.88 36.68 108.88 35.96L108.88 35.96L108.88 35.96Q108.88 34.04 108.76 30.20L108.76 30.20L108.76 30.20Q108.64 26.36 108.64 24.44L108.64 24.44L108.64 24.44Q108.64 23.28 108.76 20.88L108.76 20.88L108.76 20.88Q108.88 18.52 108.88 17.36L108.88 17.36L108.88 16.84L108.88 16.84Q108.88 14.88 109.60 14.28L109.60 14.28L109.72 14.40L110.12 14.32L110.12 14.32Q110.28 14.36 110.48 14.56L110.48 14.56L110.48 14.56Q110.64 14.72 110.64 14.92L110.64 14.92L110.72 15.16L110.72 15.16Q110.72 15.24 110.74 15.30L110.74 15.30L110.74 15.30Q110.76 15.36 110.76 15.36L110.76 15.36L110.76 15.36Q111.40 18.20 113.64 23.32L113.64 23.32L113.64 23.32Q115.92 28.72 116.48 30.48L116.48 30.48L116.48 30.48Q116.88 31.88 117.12 32.96L117.12 32.96L117.12 32.96Q117.88 36.36 118.92 38.20L118.92 38.20L119.00 38.08L119.00 38.08Q119.92 29.20 119.92 16.28L119.92 16.28L119.88 15.80L119.88 15.80Q119.84 15.60 119.84 15.28L119.84 15.28L119.84 15.28Q119.84 14.44 120.40 14.44L120.40 14.44L120.40 14.44Q120.76 14.44 121.02 14.80L121.02 14.80L121.02 14.80Q121.28 15.16 121.28 15.60L121.28 15.60L121.28 18.28L121.08 18.60L121.08 18.60Q121.08 22.40 120.64 31.08L120.64 31.08L120.64 31.08Q120.20 39.76 119.80 40.52L119.80 40.52L119.12 40.68L119.12 40.72L119.08 40.68L118.68 40.80ZM127.64 40.84L127.64 40.84Q127.32 40.84 127.32 39.76L127.32 39.76L127.32 39.76Q127.16 37 127.16 32.80L127.16 32.80L127.16 32.80Q127.16 30.16 127.20 28.08L127.20 28.08L127.24 23.36L127.24 23.36Q127.24 20.32 127.08 15.84L127.08 15.84L127.08 15.84Q126.72 15.52 126.72 15.04L126.72 15.04L126.72 15.04Q126.72 14.76 127.06 14.46L127.06 14.46L127.06 14.46Q127.40 14.16 127.68 14.16L127.68 14.16L127.68 14.16Q128.00 14.16 128.28 14.48L128.28 14.48L128.72 14.84L128.72 14.84Q128.96 14.96 129.64 15.08L129.64 15.08L129.64 15.08Q130.32 15.20 130.60 15.32L130.60 15.32L130.60 15.32Q131.20 15.64 132.20 16.56L132.20 16.56L132.20 16.56Q133.16 17.52 133.52 17.76L133.52 17.76L133.48 17.84L133.48 17.84Q133.52 18.08 134.08 18.88L134.08 18.88L134.08 18.88Q134.52 19.48 134.80 20L134.80 20L134.80 20Q135.44 21.84 135.44 24.76L135.44 24.76L135.44 24.76Q135.44 25.28 135.40 25.68L135.40 25.68L135.40 26.64L135.40 26.96L135.36 27.36L135.36 27.36Q135.36 28.12 135.60 28.56L135.60 28.56L135.60 28.56Q135.36 29.84 135 33.40L135 33.40L135 33.40Q134.88 34.44 134.60 35.60L134.60 35.60L134.60 35.60Q134.32 36.76 133.92 37.52L133.92 37.52L133.92 37.52Q132.88 39.48 130.44 40.84L130.44 40.84L127.64 40.84ZM129.04 39.68L130.28 39.68L130.28 39.68Q130.56 39.36 130.80 39.16L130.80 39.16L130.80 39.16Q130.80 39.16 131.08 38.96L131.08 38.96L131.40 38.68L131.40 38.68Q134.20 36.16 134.20 29.08L134.20 29.08L134.20 28.32L134.20 28.32Q134.16 28 134.16 27.64L134.16 27.64L134 23.60L134 23.60Q133.88 21.28 132.60 18.80L132.60 18.80L132.60 18.80Q132 17.56 130.98 16.78L130.98 16.78L130.98 16.78Q129.96 16 128.84 16L128.84 16L128.84 16Q128.36 16 128.36 23.40L128.36 23.40L128.36 23.40Q128.36 31.96 128.84 38.32L128.84 38.32L128.80 39.08L128.96 39.16L129.04 39.68ZM149.20 40.72L149.20 40.72Q148.56 40.72 148.56 39.68L148.56 39.68L148.56 36.72L148.44 34.28L148.44 34.28Q148.08 27.72 148.08 24.64L148.08 24.64L148.08 24.64Q148.08 22.96 147.64 14.16L147.64 14.16L147.64 14.16Q147.56 12.24 147.52 11.70L147.52 11.70L147.52 11.70Q147.48 11.16 147.48 11.12L147.48 11.12L147.48 10.84L147.48 10.84Q147.48 10.56 147.88 10.48L147.88 10.48L147.88 10.48Q148.12 10.40 149.28 10.40L149.28 10.40L150.16 10.40L151.28 10.40L151.28 10.40Q151.60 10.40 151.76 10.66L151.76 10.66L151.76 10.66Q151.92 10.92 151.92 11.32L151.92 11.32L151.92 11.32Q151.92 11.72 151.20 11.72L151.20 11.72L150.28 11.68L149.24 11.68L149.24 11.68Q148.92 11.68 148.84 11.80L148.84 11.80L148.84 11.80Q148.76 11.92 148.76 12.44L148.76 12.44L148.76 12.44Q148.76 13.24 149.04 18.28L149.04 18.28L149.04 18.28Q149.32 23.32 149.32 24.16L149.32 24.16L149.32 24.16Q149.80 24.16 150.68 23.92L150.68 23.92L150.68 23.92Q151.60 23.68 152.04 23.68L152.04 23.68L152.04 23.68Q152.28 23.68 152.46 23.96L152.46 23.96L152.46 23.96Q152.64 24.24 152.64 24.48L152.64 24.48L152.64 24.48Q152.64 24.92 152 25.06L152 25.06L152 25.06Q151.36 25.20 150.16 25.28L150.16 25.28L150.16 25.28Q149.32 25.40 149.32 25.76L149.32 25.76L149.32 25.76Q149.32 27.56 149.72 32.48L149.72 32.48L149.72 32.48Q150.08 36.96 150.08 39.24L150.08 39.24L149.96 39.44L149.96 39.44Q150.08 39.72 150.08 39.96L150.08 39.96L150.08 39.96Q150.08 40.72 149.20 40.72L149.20 40.72ZM162.08 41.24L162.08 41.24Q161.44 41.24 160.70 40.82L160.70 40.82L160.70 40.82Q159.96 40.40 159.48 39.84L159.48 39.84L159.48 39.84Q158.92 39.12 158.60 35.80L158.60 35.80L158.60 35.80Q158.28 32.48 158.20 28.20L158.20 28.20L158.20 28.20Q158.20 27.24 158.16 26.76L158.16 26.76L158.16 26.76Q158.08 16.72 157.84 14.88L157.84 14.88L158.08 14.32L158.08 14.32Q159 14.44 159 16.52L159 16.52L159.12 27.12L159.12 27.12Q159.12 28.24 159.32 31.36L159.32 31.36L159.32 31.36Q159.56 34.16 159.56 35.60L159.56 35.60L159.56 35.60Q159.56 40.16 162.56 40.16L162.56 40.16L162.56 40.16Q164.40 40.16 164.92 31.76L164.92 31.76L164.96 30.96L164.96 30.96Q165.24 19.96 165.24 14.68L165.24 14.68L165.20 14.32L165.20 14.32Q165.16 14.16 165.16 13.96L165.16 13.96L165.16 13.96Q165.16 13.52 165.84 13.52L165.84 13.52L165.84 13.52Q166.32 13.52 166.44 13.76L166.44 13.76L166.44 13.76Q166.52 14.16 166.52 15.16L166.52 15.16L166.52 15.16Q166.52 18.20 166.28 19.24L166.28 19.24L166.32 19.48L166.32 19.48Q166.32 20 166.20 21.08L166.20 21.08L166.12 22.68L166.12 23.08L166.12 23.08Q166.16 23.24 166.16 23.48L166.16 23.48L166.16 23.48Q166.08 24.44 166.08 25.32L166.08 25.32L166.08 25.32Q166.04 25.60 166.04 26.20L166.04 26.20L166.04 26.20Q165.96 30 165.88 32.80L165.88 32.80L165.88 32.80Q165.76 36.28 164.92 38.68L164.92 38.68L164.92 38.68Q164.04 41.24 162.08 41.24L162.08 41.24ZM175.60 40.40L175.16 40.08L175.12 38.60L175.12 38.60Q175.08 37.96 175.08 37.16L175.08 37.16L175.08 37.16Q175.08 36.76 175.12 36.48L175.12 36.48L175.16 35.76L175.16 35.76Q175.16 35.36 175 34.80L175 34.80L175 34.80Q175 32.12 174.60 24.84L174.60 24.84L174.60 24.84Q174.20 17.80 174.16 15.28L174.16 15.28L174.16 15.28Q171.68 15.28 170.84 15.16L170.84 15.16L170.84 15.16Q170.04 14.96 170.04 14.52L170.04 14.52L170.04 14.52Q170.24 14.08 170.80 14.08L170.80 14.08L170.80 14.08Q172 14.08 174.28 14.24L174.28 14.24L174.28 14.24Q176.36 14.44 177.76 14.44L177.76 14.44L178.60 14.44L179.44 14.40L179.44 14.40Q180.16 14.40 180.16 14.92L180.16 14.92L180.16 14.92Q180.16 15.16 179.90 15.30L179.90 15.30L179.90 15.30Q179.64 15.44 179.28 15.44L179.28 15.44L179.28 15.44Q178.48 15.44 177.60 15.36L177.60 15.36L175.88 15.28L175.88 15.28Q175.72 15.28 175.72 15.40L175.72 15.40L175.72 15.40Q175.68 15.52 175.68 16.16L175.68 16.16L175.68 16.16Q175.68 20.04 176.16 27.92L176.16 27.92L176.16 27.92Q176.60 36.08 176.60 39.64L176.60 39.64L176.60 39.64Q176.60 39.92 176.26 40.16L176.26 40.16L176.26 40.16Q175.92 40.40 175.60 40.40L175.60 40.40ZM188.60 41.24L188.60 41.24Q187.96 41.24 187.22 40.82L187.22 40.82L187.22 40.82Q186.48 40.40 186.00 39.84L186.00 39.84L186.00 39.84Q185.44 39.12 185.12 35.80L185.12 35.80L185.12 35.80Q184.80 32.48 184.72 28.20L184.72 28.20L184.72 28.20Q184.72 27.24 184.68 26.76L184.68 26.76L184.68 26.76Q184.60 16.72 184.36 14.88L184.36 14.88L184.60 14.32L184.60 14.32Q185.52 14.44 185.52 16.52L185.52 16.52L185.64 27.12L185.64 27.12Q185.64 28.24 185.84 31.36L185.84 31.36L185.84 31.36Q186.08 34.16 186.08 35.60L186.08 35.60L186.08 35.60Q186.08 40.16 189.08 40.16L189.08 40.16L189.08 40.16Q190.92 40.16 191.44 31.76L191.44 31.76L191.48 30.96L191.48 30.96Q191.76 19.96 191.76 14.68L191.76 14.68L191.72 14.32L191.72 14.32Q191.68 14.16 191.68 13.96L191.68 13.96L191.68 13.96Q191.68 13.52 192.36 13.52L192.36 13.52L192.36 13.52Q192.84 13.52 192.96 13.76L192.96 13.76L192.96 13.76Q193.04 14.16 193.04 15.16L193.04 15.16L193.04 15.16Q193.04 18.20 192.80 19.24L192.80 19.24L192.84 19.48L192.84 19.48Q192.84 20 192.72 21.08L192.72 21.08L192.64 22.68L192.64 23.08L192.64 23.08Q192.68 23.24 192.68 23.48L192.68 23.48L192.68 23.48Q192.60 24.44 192.60 25.32L192.60 25.32L192.60 25.32Q192.56 25.60 192.56 26.20L192.56 26.20L192.56 26.20Q192.48 30 192.40 32.80L192.40 32.80L192.40 32.80Q192.28 36.28 191.44 38.68L191.44 38.68L191.44 38.68Q190.56 41.24 188.60 41.24L188.60 41.24ZM205.72 41.32L205.16 41.12L205.16 41.12Q204.68 40.60 204.12 38.36L204.12 38.36L204.12 38.36Q203.56 36.12 203.08 33.32L203.08 33.32L203.08 33.32Q202.76 31.04 202.16 28.80L202.16 28.80L202.16 28.80Q201.68 26.80 201.24 26.80L201.24 26.80L201.12 26.80L201.12 26.80Q200.24 26.80 200.24 27.36L200.24 27.36L200.24 27.36Q200.24 30.24 200.56 36.12L200.56 36.12L200.56 36.12Q200.72 39.72 200.92 40.32L200.92 40.32L200.60 41L200.04 41L199.72 40.68L199.72 40.68Q199.08 22.20 199.08 15.48L199.08 15.48L199.08 15.48Q199.08 15.04 199.14 14.76L199.14 14.76L199.14 14.76Q199.20 14.48 199.40 14.24L199.40 14.24L199.40 14.24Q199.56 13.96 199.96 13.96L199.96 13.96L199.96 13.96Q202.00 13.96 203.24 14.96L203.24 14.96L203.24 14.96Q204.48 15.96 204.48 17.84L204.48 17.84L204.48 20.76L204.48 20.76Q204.48 21.52 203.98 22.80L203.98 22.80L203.98 22.80Q203.48 24.08 202.88 25.16L202.88 25.16L202.36 26.16L202.36 26.16Q202.80 28.20 204.10 33.50L204.10 33.50L204.10 33.50Q205.40 38.80 205.52 39.12L205.52 39.12L205.52 39.12Q205.56 39.16 205.62 39.32L205.62 39.32L205.62 39.32Q205.68 39.48 205.88 39.80L205.88 39.80L205.88 39.80Q206.16 40.36 206.16 40.76L206.16 40.76L206.16 40.76Q206.16 41.32 205.72 41.32L205.72 41.32ZM200.44 25.80L200.44 25.80Q201.20 25.80 201.80 25.04L201.80 25.04L201.80 25.04Q202.40 24.28 202.76 23.08L202.76 23.08L202.76 23.08Q203.40 20.64 203.40 19.20L203.40 19.20L203.40 19.20Q203.40 18.28 203.30 17.68L203.30 17.68L203.30 17.68Q203.20 17.08 202.96 16.40L202.96 16.40L202.96 16.40Q202.48 15 200.68 15L200.68 15L200.68 15Q200.48 15 200.36 15.34L200.36 15.34L200.36 15.34Q200.24 15.68 200.24 16.04L200.24 16.04L200.24 16.04Q200.24 18.72 200.32 20.88L200.32 20.88L200.32 20.88Q200.36 23.04 200.36 25.72L200.36 25.72L200.44 25.80ZM211.40 41.16L211.40 41.16Q210.68 41.16 210.60 40.32L210.60 40.32L210.60 39.80L210.60 39.80Q210.64 39.60 210.64 39.32L210.64 39.32L210.48 39.16L210.48 39.16Q210.80 38.32 210.80 37.52L210.80 37.52L210.80 37.52Q210.80 36.60 210.68 34.88L210.68 34.88L210.60 32.24L210.60 32.24Q210.60 30.24 210.72 26.24L210.72 26.24L210.72 26.24Q210.88 22.68 210.88 20.20L210.88 20.20L210.80 17.80L210.80 17.80Q210.72 16.72 210.72 15.40L210.72 15.40L210.72 15.40Q210.72 14.80 211.00 14.54L211.00 14.54L211.00 14.54Q211.28 14.28 211.88 14.28L211.88 14.28L211.88 14.28Q212.28 14.28 212.52 14.52L212.52 14.52L212.52 14.52Q212.60 14.56 213.68 14.68L213.68 14.68L213.68 14.68Q214.68 14.80 215.40 15.04L215.40 15.04L215.40 15.04Q216.16 15.28 216.16 15.64L216.16 15.64L216.16 15.64Q216.16 16.04 215.40 16.44L215.40 16.44L215.40 16.44Q213.12 15.68 212.16 15.68L212.16 15.68L211.96 15.92L211.96 15.92Q212.00 16.28 212.00 17.64L212.00 17.64L212.00 17.64Q212.00 19.36 211.92 20.72L211.92 20.72L211.92 20.72Q211.88 22.12 211.88 23.84L211.88 23.84L211.88 23.84Q211.88 24.96 212.44 24.96L212.44 24.96L213.08 24.92L213.08 24.92Q213.40 24.88 213.76 24.88L213.76 24.88L213.76 24.88Q215.32 24.88 215.32 25.60L215.32 25.60L215.32 25.60Q215.32 26.04 215.12 26.34L215.12 26.34L215.12 26.34Q214.92 26.64 214.52 26.64L214.52 26.64L214.52 26.64Q213.92 26.64 213.60 26.32L213.60 26.32L212.32 26.12L212.12 26.12L211.92 26.32L211.92 26.44L211.92 26.44Q212.00 27.12 212.00 29.60L212.00 29.60L212.00 29.60Q212.00 31.16 211.96 32.44L211.96 32.44L211.92 35.28L211.92 35.28Q211.92 36.84 212.04 38.48L212.04 38.48L212.04 38.48Q212.08 39.40 212.44 39.70L212.44 39.70L212.44 39.70Q212.80 40 213.76 40L213.76 40L214.48 39.96L214.48 39.96Q214.84 39.92 215.28 39.92L215.28 39.92L215.28 39.92Q216.44 39.92 216.44 40.44L216.44 40.44L216.44 40.44Q216.44 41.16 214.68 41.16L214.68 41.16L211.40 41.16Z" transform="rotate(0 109.58000063896179 25.859999656677246)"></path><defs id="SvgjsDefs1104"></defs></svg></g></svg>